<svg viewBox="0 0 200 200" xmlns="http://www.w3.org/2000/svg">
  <defs>
    <!-- Enhanced neon gradients -->
    <linearGradient id="shield-gradient" x1="0%" y1="0%" x2="100%" y2="100%">
      <stop offset="0%" stop-color="#00FFFF" />
      <stop offset="50%" stop-color="#40DFFF" />
      <stop offset="100%" stop-color="#0070FF" />
    </linearGradient>
    
    <linearGradient id="circuit-gradient" x1="0%" y1="0%" x2="100%" y2="100%">
      <stop offset="0%" stop-color="#00FFFF" stop-opacity="0.9" />
      <stop offset="100%" stop-color="#0080FF" stop-opacity="0.9" />
    </linearGradient>
    
    <linearGradient id="glow-gradient" x1="0%" y1="0%" x2="100%" y2="0%">
      <stop offset="0%" stop-color="#00FFFF" />
      <stop offset="50%" stop-color="#80FFFF" />
      <stop offset="100%" stop-color="#00FFFF" />
    </linearGradient>
    
    <!-- Stronger glow effect -->
    <filter id="neon-glow">
      <feGaussianBlur stdDeviation="3.5" result="glow" />
      <feMerge>
        <feMergeNode in="glow" />
        <feMergeNode in="SourceGraphic" />
      </feMerge>
    </filter>
    
    <!-- Intense inner glow -->
    <filter id="inner-glow">
      <feGaussianBlur stdDeviation="1.5" result="glow" />
      <feComposite in="glow" in2="SourceGraphic" operator="out" result="outline" />
      <feComposite in="outline" in2="SourceGraphic" operator="atop" />
    </filter>
    
    <clipPath id="shield-clip">
      <path d="M100,20 L180,55 V100 C180,145 145,180 100,180 C55,180 20,145 20,100 V55 L100,20z" />
    </clipPath>
  </defs>
  
  <!-- Background glow -->
  <ellipse cx="100" cy="100" rx="85" ry="85" fill="rgba(0, 255, 255, 0.05)" filter="url(#neon-glow)" />
  
  <!-- Shield Base with enhanced glow -->
  <path d="M100,20 L180,55 V100 C180,145 145,180 100,180 C55,180 20,145 20,100 V55 L100,20z" 
    fill="rgba(0, 40, 80, 0.5)" stroke="url(#glow-gradient)" stroke-width="2.5" filter="url(#neon-glow)" />
  
  <!-- Inner Shield with pulsing -->
  <path d="M100,35 L160,65 V100 C160,135 135,160 100,160 C65,160 40,135 40,100 V65 L100,35z" 
    fill="none" stroke="#80FFFF" stroke-width="1.5" opacity="0.8" filter="url(#inner-glow)">
    <animate attributeName="opacity" values="0.8;1;0.8" dur="3s" repeatCount="indefinite" />
  </path>
  
  <!-- Circuit Grid Background -->
  <g clip-path="url(#shield-clip)">
    <!-- Horizontal lines -->
    <path d="M30,60 L170,60" stroke="#00FFFF" stroke-width="0.5" stroke-dasharray="1,3" opacity="0.4" />
    <path d="M30,80 L170,80" stroke="#00FFFF" stroke-width="0.5" stroke-dasharray="1,3" opacity="0.4" />
    <path d="M30,100 L170,100" stroke="#00FFFF" stroke-width="0.5" stroke-dasharray="1,3" opacity="0.4" />
    <path d="M30,120 L170,120" stroke="#00FFFF" stroke-width="0.5" stroke-dasharray="1,3" opacity="0.4" />
    <path d="M30,140 L170,140" stroke="#00FFFF" stroke-width="0.5" stroke-dasharray="1,3" opacity="0.4" />
    
    <!-- Vertical lines -->
    <path d="M60,40 L60,160" stroke="#00FFFF" stroke-width="0.5" stroke-dasharray="1,3" opacity="0.4" />
    <path d="M100,40 L100,160" stroke="#00FFFF" stroke-width="0.5" stroke-dasharray="1,3" opacity="0.4" />
    <path d="M140,40 L140,160" stroke="#00FFFF" stroke-width="0.5" stroke-dasharray="1,3" opacity="0.4" />
  </g>
  
  <!-- Enhanced Hexagon Pattern -->
  <g clip-path="url(#shield-clip)">
    <!-- Center hexagon with glow -->
    <path d="M100,70 L120,80 L120,105 L100,115 L80,105 L80,80 Z" 
      fill="rgba(0, 128, 255, 0.1)" stroke="url(#circuit-gradient)" stroke-width="2" filter="url(#inner-glow)">
      <animate attributeName="stroke-opacity" values="0.9;0.5;0.9" dur="4s" repeatCount="indefinite" />
    </path>
    
    <!-- Surrounding hexagons with synchronized pulse -->
    <g opacity="0.8">
      <animate attributeName="opacity" values="0.8;0.4;0.8" dur="3s" repeatCount="indefinite" />
      
      <path d="M65,50 L85,60 L85,80 L65,90 L45,80 L45,60 Z" 
        fill="none" stroke="#00FFFF" stroke-width="1.5" />
      
      <path d="M135,50 L155,60 L155,80 L135,90 L115,80 L115,60 Z" 
        fill="none" stroke="#00FFFF" stroke-width="1.5" />
      
      <path d="M65,110 L85,120 L85,140 L65,150 L45,140 L45,120 Z" 
        fill="none" stroke="#00FFFF" stroke-width="1.5" />
      
      <path d="M135,110 L155,120 L155,140 L135,150 L115,140 L115,120 Z" 
        fill="none" stroke="#00FFFF" stroke-width="1.5" />
    </g>
  </g>
  
  <!-- Enhanced Circuit Nodes with stronger glow -->
  <g filter="url(#neon-glow)">
    <circle cx="60" cy="60" r="3" fill="#00FFFF">
      <animate attributeName="opacity" values="1;0.2;1" dur="2s" repeatCount="indefinite" />
    </circle>
    <circle cx="60" cy="100" r="3" fill="#00FFFF">
      <animate attributeName="opacity" values="0.2;1;0.2" dur="2.5s" repeatCount="indefinite" />
    </circle>
    <circle cx="60" cy="140" r="3" fill="#00FFFF">
      <animate attributeName="opacity" values="0.6;0.1;0.6" dur="3s" repeatCount="indefinite" />
    </circle>
    
    <circle cx="100" cy="60" r="3" fill="#00FFFF">
      <animate attributeName="opacity" values="0.4;1;0.4" dur="2.2s" repeatCount="indefinite" />
    </circle>
    <circle cx="100" cy="140" r="3" fill="#00FFFF">
      <animate attributeName="opacity" values="1;0.3;1" dur="2.7s" repeatCount="indefinite" />
    </circle>
    
    <circle cx="140" cy="60" r="3" fill="#00FFFF">
      <animate attributeName="opacity" values="0.7;0.1;0.7" dur="2.1s" repeatCount="indefinite" />
    </circle>
    <circle cx="140" cy="100" r="3" fill="#00FFFF">
      <animate attributeName="opacity" values="0.3;0.9;0.3" dur="2.4s" repeatCount="indefinite" />
    </circle>
    <circle cx="140" cy="140" r="3" fill="#00FFFF">
      <animate attributeName="opacity" values="0.5;1;0.5" dur="2.9s" repeatCount="indefinite" />
    </circle>
  </g>
  
  <!-- Central Design Elements -->
  <g filter="url(#neon-glow)">
    <!-- Central ring with enhanced pulsing glow -->
    <circle cx="100" cy="100" r="35" fill="none" stroke="url(#glow-gradient)" stroke-width="2" opacity="0.7">
      <animate attributeName="r" values="35;38;35" dur="3s" repeatCount="indefinite" />
      <animate attributeName="stroke-opacity" values="0.7;1;0.7" dur="3s" repeatCount="indefinite" />
    </circle>
    
    <!-- Inner ring -->
    <circle cx="100" cy="100" r="25" fill="none" stroke="#00FFFF" stroke-width="1.5" opacity="0.9">
      <animate attributeName="r" values="25;27;25" dur="4s" repeatCount="indefinite" />
    </circle>
    
    <!-- Lock Symbol with enhanced neon effect -->
    <g>
      <rect x="90" y="95" width="20" height="20" rx="3" fill="rgba(0, 128, 255, 0.3)" stroke="#00FFFF" stroke-width="1.5" />
      <path d="M95,95 V85 C95,80 105,80 105,85 V95" stroke="#00FFFF" stroke-width="2" fill="none" />
      <circle cx="100" cy="105" r="3" fill="#00FFFF" />
    </g>
  </g>
  
  <!-- Scanning Radar Animation with enhanced effect -->
  <g clip-path="url(#shield-clip)">
    <path d="M100,100 L150,50 A70,70 0 0,1 170,100 z" fill="url(#circuit-gradient)" opacity="0.6">
      <animateTransform 
        attributeName="transform" 
        type="rotate" 
        from="0 100 100" 
        to="360 100 100" 
        dur="4s" 
        repeatCount="indefinite" />
    </path>
  </g>
  
  <!-- Enhanced Shield Edge with animated glow -->
  <path d="M100,20 L180,55 V100 C180,145 145,180 100,180 C55,180 20,145 20,100 V55 L100,20z" 
    fill="none" stroke="#00FFFF" stroke-width="0.75" opacity="0.6" filter="url(#neon-glow)">
    <animate attributeName="opacity" values="0.6;1;0.6" dur="3s" repeatCount="indefinite" />
  </path>
  
  <!-- Extra outer glow pulse -->
  <path d="M100,15 L185,52 V100 C185,150 150,185 100,185 C50,185 15,150 15,100 V52 L100,15z" 
    fill="none" stroke="#00FFFF" stroke-width="0.5" opacity="0.3">
    <animate attributeName="opacity" values="0.3;0.6;0.3" dur="5s" repeatCount="indefinite" />
  </path>
</svg>